HIERARCHY
ROOT Hips
{
	OFFSET 0.000000 0.000000 0.000000
	CHANNELS 6 Xposition Yposition Zposition Zrotation Yrotation Xrotation 
	JOINT LHipJoint
	{
		OFFSET 0.000000 0.000000 0.000000
		CHANNELS 3 Zrotation Yrotation Xrotation
		JOINT LeftUpLeg
		{
			OFFSET 1.363060 -1.794630 0.839290
			CHANNELS 3 Zrotation Yrotation Xrotation
			JOINT LeftLeg
			{
				OFFSET 2.448110 -6.726130 0.000000
				CHANNELS 3 Zrotation Yrotation Xrotation
				JOINT LeftFoot
				{
					OFFSET 2.562200 -7.039590 0.000000
					CHANNELS 3 Zrotation Yrotation Xrotation
					JOINT LeftToeBase
					{
						OFFSET 0.157640 -0.433110 2.322550
						CHANNELS 3 Zrotation Yrotation Xrotation
						End Site
						{
							OFFSET 0.000000 0.000000 0.000000
						}
					}
				}
			}
		}
	}
	JOINT RHipJoint
	{
		OFFSET 0.000000 0.000000 0.000000
		CHANNELS 3 Zrotation Yrotation Xrotation
		JOINT RightUpLeg
		{
			OFFSET -1.305520 -1.794630 0.839290
			CHANNELS 3 Zrotation Yrotation Xrotation
			JOINT RightLeg
			{
				OFFSET -2.542530 -6.985550 0.000000
				CHANNELS 3 Zrotation Yrotation Xrotation
				JOINT RightFoot
				{
					OFFSET -2.568260 -7.056230 0.000000
					CHANNELS 3 Zrotation Yrotation Xrotation
					JOINT RightToeBase
					{
						OFFSET -0.164730 -0.452590 2.363150
						CHANNELS 3 Zrotation Yrotation Xrotation
						End Site
						{
							OFFSET 0.000000 0.000000 0.000000
						}
					}
				}
			}
		}
	}
	JOINT LowerBack
	{
		OFFSET 0.000000 0.000000 0.000000
		CHANNELS 3 Zrotation Yrotation Xrotation
		JOINT Spine
		{
			OFFSET 0.028270 2.035590 -0.193380
			CHANNELS 3 Zrotation Yrotation Xrotation
			JOINT Spine1
			{
				OFFSET 0.056720 2.048850 -0.042750
				CHANNELS 3 Zrotation Yrotation Xrotation
				JOINT Neck
				{
					OFFSET 0.000000 0.000000 0.000000
					CHANNELS 3 Zrotation Yrotation Xrotation
					JOINT Neck1
					{
						OFFSET -0.054170 1.746240 0.172020
						CHANNELS 3 Zrotation Yrotation Xrotation
						JOINT Head
						{
							OFFSET 0.104070 1.761360 -0.123970
							CHANNELS 3 Zrotation Yrotation Xrotation
							End Site
							{
								OFFSET 0.000000 0.000000 0.000000
							}
						}
					}
				}
				JOINT LeftShoulder
				{
					OFFSET 0.000000 0.000000 0.000000
					CHANNELS 3 Zrotation Yrotation Xrotation
					JOINT LeftArm
					{
						OFFSET 3.362410 1.200890 -0.311210
						CHANNELS 3 Zrotation Yrotation Xrotation
						JOINT LeftForeArm
						{
							OFFSET 4.983000 -0.000000 -0.000000
							CHANNELS 3 Zrotation Yrotation Xrotation
							JOINT LeftHand
							{
								OFFSET 3.483560 -0.000000 -0.000000
								CHANNELS 3 Zrotation Yrotation Xrotation
								JOINT LeftFingerBase
								{
									OFFSET 0.000000 0.000000 0.000000
									CHANNELS 3 Zrotation Yrotation Xrotation
									JOINT LeftHandIndex1
									{
										OFFSET 0.715260 -0.000000 -0.000000
										CHANNELS 3 Zrotation Yrotation Xrotation
										End Site
										{
											OFFSET 0.000000 0.000000 0.000000
										}
									}
								}
								JOINT LThumb
								{
									OFFSET 0.000000 0.000000 0.000000
									CHANNELS 3 Zrotation Yrotation Xrotation
									End Site
									{
										OFFSET 0.000000 0.000000 0.000000
									}
								}
							}
						}
					}
				}
				JOINT RightShoulder
				{
					OFFSET 0.000000 0.000000 0.000000
					CHANNELS 3 Zrotation Yrotation Xrotation
					JOINT RightArm
					{
						OFFSET -3.136600 1.374050 -0.404650
						CHANNELS 3 Zrotation Yrotation Xrotation
						JOINT RightForeArm
						{
							OFFSET -5.241900 -0.000000 -0.000000
							CHANNELS 3 Zrotation Yrotation Xrotation
							JOINT RightHand
							{
								OFFSET -3.444170 -0.000000 -0.000000
								CHANNELS 3 Zrotation Yrotation Xrotation
								JOINT RightFingerBase
								{
									OFFSET 0.000000 0.000000 0.000000
									CHANNELS 3 Zrotation Yrotation Xrotation
									JOINT RightHandIndex1
									{
										OFFSET -0.622530 -0.000000 -0.000000
										CHANNELS 3 Zrotation Yrotation Xrotation
										End Site
										{
											OFFSET 0.000000 0.000000 0.000000
										}
									}
								}
								JOINT RThumb
								{
									OFFSET 0.000000 0.000000 0.000000
									CHANNELS 3 Zrotation Yrotation Xrotation
									End Site
									{
										OFFSET 0.000000 0.000000 0.000000
									}
								}
							}
						}
					}
				}
			}
		}
	}
}
MOTION
Frames: 6
Frame Time: 0.008333
-2.326319 19.102783 -0.022596 -119.932909 80.325888 -127.889403 30.984817 9.264839 6.176814 -55.294926 -22.040598 -4.693822 12.985438 9.921588 57.419467 -9.829185 -30.763433 -43.966801 6.763500 15.129400 47.973900 -27.429321 -13.278550 3.445604 66.866959 7.176212 0.878934 -13.004354 -11.210287 50.530002 -0.622824 13.506263 -52.472600 -1.721700 -8.260500 23.508200 -6.517595 -1.901180 -8.320418 29.929632 -11.607804 51.996785 -8.640280 -0.733884 -18.003498 -13.590945 -4.759285 -27.386384 0.477157 -0.325561 65.218044 3.265400 -0.679700 18.014400 3.294756 1.836436 2.291962 -104.875679 2.314836 18.260722 32.170955 -46.452962 -5.741050 6.058836 8.178832 -1.270683 28.984282 26.152801 7.526200 -7.125000 0.000000 0.000000 -4.970500 49.470400 -0.549100 -11.104522 -5.634602 0.589229 97.534378 2.147800 8.563202 -31.431187 42.282960 -4.699329 -3.449264 -0.225243 -11.946373 -23.820399 13.800725 -5.019000 7.125000 0.000000 0.000000 4.802000 -15.466500 3.359500 
-2.325181 19.102702 -0.023978 -120.258758 80.344317 -128.207664 30.926972 9.241396 6.230516 -55.299549 -22.127987 -4.793340 13.040194 9.994493 57.556145 -9.790809 -30.519980 -43.781148 6.947200 15.287200 48.674200 -27.450322 -13.326866 3.390581 66.809135 7.009885 0.913128 -13.059023 -11.214227 50.430732 -0.840576 13.024562 -52.718284 -1.297800 -7.217600 20.361600 -6.640540 -1.884273 -8.287218 29.992105 -11.622887 51.969605 -8.555995 -0.715637 -18.024282 -13.605043 -4.729932 -27.520110 0.372168 -0.248588 65.122753 3.249000 -0.684500 17.978700 3.261043 1.828719 2.285127 -104.962181 2.319870 18.184037 32.169732 -46.492209 -5.747828 6.075045 8.192369 -1.123099 28.998928 26.324939 7.592100 -7.125000 0.000000 0.000000 -4.987900 49.630300 -0.570700 -11.082463 -5.626588 0.616418 97.302034 1.922897 9.155437 -31.734900 42.566639 -4.833452 -3.429170 -0.372143 -12.470620 -23.795702 13.313245 -4.878500 7.125000 0.000000 0.000000 4.809400 -15.859500 3.323900 
-2.325831 19.096849 -0.025034 -119.614855 80.049032 -127.516944 31.060036 9.225469 6.160293 -55.131110 -22.248060 -4.926011 12.921768 9.981327 57.777673 -9.407037 -30.510833 -44.831221 5.944900 14.374700 44.760200 -27.281108 -13.371167 3.287402 66.903863 6.780978 0.930911 -13.057000 -11.251648 50.277758 -0.892734 12.801612 -52.565405 -1.024900 -6.440000 18.066500 -7.065697 -1.968660 -7.874197 31.217518 -11.918663 51.135155 -8.677731 -0.753401 -17.890699 -13.979859 -4.644757 -27.570514 0.273808 -0.005910 65.043924 3.335700 -0.653200 17.967000 3.091983 1.770281 2.334191 -105.342601 2.413112 17.695717 32.093564 -46.555760 -5.753236 6.142737 8.100058 -0.848747 29.186544 26.128217 7.595300 -7.125000 0.000000 0.000000 -4.800600 49.511900 -0.535200 -11.172605 -5.598505 0.677156 97.254074 1.799885 8.746153 -31.977245 42.855403 -4.916871 -3.345668 -0.417795 -11.544331 -23.632984 12.769681 -4.697500 7.125000 0.000000 0.000000 4.859700 -16.330700 3.309200 
-2.324206 19.092623 -0.031537 -118.134609 79.632630 -126.050841 31.321972 9.323055 6.205262 -54.896573 -22.422596 -5.082974 12.523953 9.813452 57.921141 -7.197825 -29.590992 -49.734111 1.648800 8.092800 22.996200 -27.080886 -13.326285 3.164719 67.094916 6.481779 0.995762 -13.027882 -11.314371 50.140291 -0.951709 12.586031 -52.369293 -0.807600 -5.735200 16.018100 -6.845859 -1.967422 -7.603535 32.020044 -12.019229 50.574387 -9.132440 -0.820691 -17.872286 -14.107863 -4.699257 -27.505536 0.401534 -0.125870 65.069582 3.347200 -0.662900 17.951400 3.009751 1.721232 2.389287 -105.330850 2.544145 17.702911 32.074752 -46.526806 -5.754076 6.187348 8.016854 -0.715042 29.327070 25.840783 7.545800 -7.125000 0.000000 0.000000 -4.635600 49.291100 -0.491500 -11.239728 -5.561859 0.701470 97.698758 1.806168 7.374486 -31.867138 42.815140 -4.825298 -3.248334 -0.248267 -9.885105 -23.287989 13.005125 -4.697900 7.125000 0.000000 0.000000 5.022000 -16.180500 3.437000 
-2.320548 19.091485 -0.036739 -117.932591 79.658373 -125.937317 31.250969 9.392450 6.380549 -54.811642 -22.458878 -5.193753 12.589919 9.865888 58.036296 -6.306031 -28.441374 -50.993877 0.460500 4.352900 12.071600 -27.137726 -13.291326 3.118372 67.064786 6.268909 1.090096 -12.991419 -11.292703 50.074594 -0.904810 12.769141 -52.394736 -0.823100 -5.788700 16.172600 -6.258067 -1.831676 -7.800729 31.254370 -11.760188 51.109421 -9.364826 -0.834286 -18.129441 -13.783628 -4.814615 -27.603113 0.710353 -0.521441 65.122709 3.287200 -0.698000 17.913200 3.146238 1.775109 2.377678 -104.906937 2.590212 18.233105 32.166744 -46.471098 -5.759002 6.131936 8.032546 -0.884713 29.159576 25.756953 7.462200 -7.125000 0.000000 0.000000 -4.746500 49.176400 -0.489900 -11.247793 -5.580832 0.656558 97.988200 1.975180 7.341670 -31.259038 42.130032 -4.587111 -3.330627 -0.130511 -10.017241 -23.420818 13.470092 -4.833600 7.125000 0.000000 0.000000 4.983500 -15.824100 3.449000 
-2.319085 19.089941 -0.036739 -118.914081 80.002847 -127.127050 31.051115 9.314597 6.439221 -55.043368 -22.357785 -5.008452 12.652323 9.951231 58.027818 -5.997417 -27.842206 -51.147278 0.400800 4.064800 11.259100 -27.295592 -13.337747 3.055283 66.795071 5.903080 1.200951 -13.041275 -11.270674 50.031210 -1.003770 12.544127 -52.552983 -0.719700 -5.421100 15.113600 -6.266971 -1.742661 -7.788130 30.330237 -11.579560 51.721931 -9.073784 -0.793170 -18.395247 -13.452934 -4.728862 -27.861214 0.679560 -0.477788 65.014448 3.247600 -0.666300 17.847700 3.273896 1.896330 2.338013 -104.782391 2.537311 18.336351 32.206329 -46.487509 -5.759401 6.048568 8.068687 -1.108338 28.885331 25.743309 7.370900 -7.125000 0.000000 0.000000 -4.955200 49.108700 -0.503200 -11.250667 -5.616932 0.606686 97.966328 2.237485 8.085483 -30.719638 41.534592 -4.417332 -3.447257 -0.118711 -10.539612 -23.748392 13.532948 -4.894700 7.125000 0.000000 0.000000 4.833500 -15.790600 3.347900 
